<mxfile host="65bd71144e">
    <diagram id="OZF23zeRfI2_MURTT4Vd" name="第 1 页">
        <mxGraphModel dx="709" dy="669" grid="1" gridSize="10" guides="1" tooltips="1" connect="1" arrows="1" fold="1" page="1" pageScale="1" pageWidth="827" pageHeight="1169" math="0" shadow="0">
            <root>
                <mxCell id="0"/>
                <mxCell id="1" parent="0"/>
                <mxCell id="2" value="驱动级进程" style="rounded=0;whiteSpace=wrap;html=1;" vertex="1" parent="1">
                    <mxGeometry x="230" y="340" width="120" height="60" as="geometry"/>
                </mxCell>
                <mxCell id="3" value="逻辑级进程" style="rounded=0;whiteSpace=wrap;html=1;" vertex="1" parent="1">
                    <mxGeometry x="230" y="640" width="120" height="60" as="geometry"/>
                </mxCell>
                <mxCell id="4" value="UART不定长收发" style="rounded=0;whiteSpace=wrap;html=1;" vertex="1" parent="1">
                    <mxGeometry x="400" y="260" width="120" height="60" as="geometry"/>
                </mxCell>
                <mxCell id="5" value="CAN通讯" style="rounded=0;whiteSpace=wrap;html=1;" vertex="1" parent="1">
                    <mxGeometry x="400" y="340" width="120" height="60" as="geometry"/>
                </mxCell>
                <mxCell id="6" value="SPI轮询" style="rounded=0;whiteSpace=wrap;html=1;" vertex="1" parent="1">
                    <mxGeometry x="400" y="420" width="120" height="60" as="geometry"/>
                </mxCell>
                <mxCell id="7" value="IMU数据处理" style="rounded=0;whiteSpace=wrap;html=1;" vertex="1" parent="1">
                    <mxGeometry x="400" y="520" width="120" height="60" as="geometry"/>
                </mxCell>
                <mxCell id="8" value="IMU温度闭环" style="rounded=0;whiteSpace=wrap;html=1;" vertex="1" parent="1">
                    <mxGeometry x="400" y="600" width="120" height="60" as="geometry"/>
                </mxCell>
                <mxCell id="9" value="呼吸灯光效" style="rounded=0;whiteSpace=wrap;html=1;" vertex="1" parent="1">
                    <mxGeometry x="400" y="680" width="120" height="60" as="geometry"/>
                </mxCell>
                <mxCell id="10" value="DBUS解析" style="rounded=0;whiteSpace=wrap;html=1;" vertex="1" parent="1">
                    <mxGeometry x="400" y="760" width="120" height="60" as="geometry"/>
                </mxCell>
                <mxCell id="11" value="" style="endArrow=classic;html=1;exitX=1;exitY=0.5;exitDx=0;exitDy=0;entryX=0;entryY=0.5;entryDx=0;entryDy=0;" edge="1" parent="1" source="3" target="7">
                    <mxGeometry width="50" height="50" relative="1" as="geometry">
                        <mxPoint x="400" y="600" as="sourcePoint"/>
                        <mxPoint x="450" y="550" as="targetPoint"/>
                        <Array as="points">
                            <mxPoint x="370" y="670"/>
                            <mxPoint x="370" y="550"/>
                        </Array>
                    </mxGeometry>
                </mxCell>
                <mxCell id="12" value="" style="endArrow=classic;html=1;exitX=1;exitY=0.5;exitDx=0;exitDy=0;entryX=0;entryY=0.5;entryDx=0;entryDy=0;" edge="1" parent="1" source="3" target="8">
                    <mxGeometry width="50" height="50" relative="1" as="geometry">
                        <mxPoint x="420" y="720" as="sourcePoint"/>
                        <mxPoint x="470" y="670" as="targetPoint"/>
                        <Array as="points">
                            <mxPoint x="370" y="670"/>
                            <mxPoint x="370" y="630"/>
                        </Array>
                    </mxGeometry>
                </mxCell>
                <mxCell id="13" value="" style="endArrow=classic;html=1;exitX=1;exitY=0.5;exitDx=0;exitDy=0;entryX=0;entryY=0.5;entryDx=0;entryDy=0;" edge="1" parent="1" source="3" target="9">
                    <mxGeometry width="50" height="50" relative="1" as="geometry">
                        <mxPoint x="420" y="720" as="sourcePoint"/>
                        <mxPoint x="470" y="670" as="targetPoint"/>
                        <Array as="points">
                            <mxPoint x="370" y="670"/>
                            <mxPoint x="370" y="710"/>
                        </Array>
                    </mxGeometry>
                </mxCell>
                <mxCell id="14" value="" style="endArrow=classic;html=1;exitX=1;exitY=0.5;exitDx=0;exitDy=0;entryX=0;entryY=0.5;entryDx=0;entryDy=0;" edge="1" parent="1" source="3" target="10">
                    <mxGeometry width="50" height="50" relative="1" as="geometry">
                        <mxPoint x="420" y="720" as="sourcePoint"/>
                        <mxPoint x="470" y="670" as="targetPoint"/>
                        <Array as="points">
                            <mxPoint x="370" y="670"/>
                            <mxPoint x="370" y="790"/>
                        </Array>
                    </mxGeometry>
                </mxCell>
                <mxCell id="15" value="PWM控制" style="rounded=0;whiteSpace=wrap;html=1;" vertex="1" parent="1">
                    <mxGeometry x="400" y="840" width="120" height="60" as="geometry"/>
                </mxCell>
                <mxCell id="16" value="" style="endArrow=classic;html=1;exitX=1;exitY=0.5;exitDx=0;exitDy=0;entryX=0;entryY=0.5;entryDx=0;entryDy=0;" edge="1" parent="1" source="3" target="15">
                    <mxGeometry width="50" height="50" relative="1" as="geometry">
                        <mxPoint x="410" y="780" as="sourcePoint"/>
                        <mxPoint x="460" y="730" as="targetPoint"/>
                        <Array as="points">
                            <mxPoint x="370" y="670"/>
                            <mxPoint x="370" y="870"/>
                        </Array>
                    </mxGeometry>
                </mxCell>
                <mxCell id="17" value="" style="endArrow=classic;html=1;exitX=1;exitY=0.5;exitDx=0;exitDy=0;entryX=0;entryY=0.5;entryDx=0;entryDy=0;" edge="1" parent="1" source="2" target="4">
                    <mxGeometry width="50" height="50" relative="1" as="geometry">
                        <mxPoint x="380" y="450" as="sourcePoint"/>
                        <mxPoint x="430" y="400" as="targetPoint"/>
                        <Array as="points">
                            <mxPoint x="370" y="370"/>
                            <mxPoint x="370" y="290"/>
                        </Array>
                    </mxGeometry>
                </mxCell>
                <mxCell id="18" value="" style="endArrow=classic;html=1;entryX=0;entryY=0.5;entryDx=0;entryDy=0;" edge="1" parent="1" target="5">
                    <mxGeometry width="50" height="50" relative="1" as="geometry">
                        <mxPoint x="350" y="370" as="sourcePoint"/>
                        <mxPoint x="430" y="330" as="targetPoint"/>
                    </mxGeometry>
                </mxCell>
                <mxCell id="19" value="" style="endArrow=classic;html=1;exitX=1;exitY=0.5;exitDx=0;exitDy=0;entryX=0;entryY=0.5;entryDx=0;entryDy=0;" edge="1" parent="1" source="2" target="6">
                    <mxGeometry width="50" height="50" relative="1" as="geometry">
                        <mxPoint x="380" y="410" as="sourcePoint"/>
                        <mxPoint x="430" y="360" as="targetPoint"/>
                        <Array as="points">
                            <mxPoint x="370" y="370"/>
                            <mxPoint x="370" y="450"/>
                        </Array>
                    </mxGeometry>
                </mxCell>
            </root>
        </mxGraphModel>
    </diagram>
</mxfile>